<?xml version="1.0" encoding="utf-8"?>
<!-- Generator: Adobe Illustrator 16.0.0, SVG Export Plug-In . SVG Version: 6.00 Build 0)  -->
<!DOCTYPE svg PUBLIC "-//W3C//DTD SVG 1.1//EN" "http://www.w3.org/Graphics/SVG/1.1/DTD/svg11.dtd">
<svg version="1.1" id="Layer_1" xmlns="http://www.w3.org/2000/svg" xmlns:xlink="http://www.w3.org/1999/xlink" x="0px" y="0px"
	 width="1008px" height="336px" viewBox="0 0 1008 336" enable-background="new 0 0 1008 336" xml:space="preserve">
<path d="M784,156.001v67.997l8-4v-63.997h56V280h8V156.001h60v-8h-60v-28l-8,4v24h-56V56h-8v92.001L696.215,148v-11.181h22.437
	v-7.685h-30.53V148H675.95v-18.866h-8.09V148h-16.046v-18.866h-8.023V148h-12.237v-18.866h-8.094V148h-15.366v-18.866H600V148H0v8
	h600v20.732h8.094V156h15.366v20.732h8.094V156h12.237v2.578c0,6.619,1.496,11.436,4.488,14.45
	c2.992,3.016,6.844,4.521,11.559,4.521c4.761,0,8.636-1.529,11.628-4.59s4.484-7.854,4.484-14.381V156h12.171v20.732h31.96v-7.684
	h-23.866V156 M667.86,158.578c0,7.525-2.676,11.288-8.022,11.288c-2.539,0-4.512-0.85-5.918-2.549
	c-1.406-1.701-2.105-4.613-2.105-8.738V156h16.046V158.578z"/>
</svg>
