<?xml version="1.0" encoding="utf-8"?>
<!-- Generator: Adobe Illustrator 16.0.0, SVG Export Plug-In . SVG Version: 6.00 Build 0)  -->
<!DOCTYPE svg PUBLIC "-//W3C//DTD SVG 1.1//EN" "http://www.w3.org/Graphics/SVG/1.1/DTD/svg11.dtd">
<svg version="1.1" id="Layer_1" xmlns="http://www.w3.org/2000/svg" xmlns:xlink="http://www.w3.org/1999/xlink" x="0px" y="0px"
	 width="1008px" height="336px" viewBox="0 0 1008 336" enable-background="new 0 0 1008 336" xml:space="preserve">
<path d="M184,148.001v-28l-8,4v24h-56V56h-8v92.001H92v8h20v67.997l8-4v-63.997h56V280h8V156.001L247.919,156v20.732h8.094V156
	h15.366v20.732h8.094V156h12.237v2.578c0,6.619,1.496,11.436,4.488,14.449c2.993,3.016,6.844,4.521,11.559,4.521
	c4.761,0,8.635-1.531,11.627-4.591s4.484-7.854,4.484-14.381V156h12.172v20.732H368v-7.685h-23.867V156H1008v-8H344.133v-11.182
	h22.438v-7.685h-30.53V148h-12.172v-18.867h-8.09V148h-16.045v-18.866h-8.023V148h-12.237v-18.867h-8.094V148h-15.366v-18.867
	h-8.094V148 M315.778,158.577c0,7.526-2.675,11.288-8.022,11.288c-2.539,0-4.512-0.85-5.918-2.549
	c-1.406-1.701-2.105-4.613-2.105-8.738V156h16.045V158.577z"/>
</svg>
